<?xml version="1.0" encoding="utf-8"?><svg viewBox="0 0 512 512" xmlns="http://www.w3.org/2000/svg" xmlns:xlink="http://www.w3.org/1999/xlink"><style>:root>svg{display:none}:root>svg:target{display:block}</style><svg viewBox="0 0 50 50" id="angle" xmlns="http://www.w3.org/2000/svg"><path d="M48.707 13.853l-1.414-1.413L25 34.732 2.707 12.44l-1.414 1.413L25 37.56z"/></svg><svg viewBox="0 0 20 19" id="cart" xmlns="http://www.w3.org/2000/svg"><path d="M20 6.579h-3.396L13.036.319a.608.608 0 00-.858-.225.678.678 0 00-.214.902l3.182 5.583H4.854L8.036.996a.678.678 0 00-.214-.902.608.608 0 00-.858.225L3.396 6.58H0v1.316h1.357l1.587 8.915c.166.934.941 1.611 1.844 1.611h10.424c.902 0 1.678-.677 1.843-1.61l1.588-8.916H20V6.579zm-4.174 9.99a.634.634 0 01-.614.536H4.788a.634.634 0 01-.615-.537L2.628 7.895h14.744l-1.546 8.674z"/></svg><svg viewBox="0 0 24 24" id="close" xmlns="http://www.w3.org/2000/svg"><path d="M6.226 4.811A1 1 0 004.81 6.225L10.586 12l-5.774 5.775a1 1 0 101.414 1.414L12 13.414l5.775 5.775a1 1 0 001.414-1.414L13.415 12l5.774-5.775a1 1 0 10-1.414-1.414L12 10.586 6.226 4.81z"/></svg><svg viewBox="0 0 24 24" id="delete" xmlns="http://www.w3.org/2000/svg"><path fill-rule="evenodd" clip-rule="evenodd" d="M11 2a1 1 0 00-1 1v1h4V3a1 1 0 00-1-1h-2zm5 2V3a3 3 0 00-3-3h-2a3 3 0 00-3 3v1H3a1 1 0 000 2h.105l1.703 15.331A3 3 0 007.79 24h8.42a3 3 0 002.982-2.669L20.895 6H21a1 1 0 100-2h-5zm2.883 2H5.117l1.68 15.11a1 1 0 00.993.89h8.42a1 1 0 00.994-.89L18.883 6zM10 9a1 1 0 011 1v8a1 1 0 11-2 0v-8a1 1 0 011-1zm4 0a1 1 0 011 1v8a1 1 0 11-2 0v-8a1 1 0 011-1z"/></svg><svg viewBox="0 0 512 512" id="eye" xmlns="http://www.w3.org/2000/svg"><path d="M510.977 250.975C467.408 148.537 367.321 82.344 256 82.344S44.594 148.535 1.023 250.975a12.811 12.811 0 000 10.033C44.591 363.458 144.677 429.656 256 429.656c111.326 0 211.411-66.198 254.977-168.648a12.811 12.811 0 000-10.033zM256 404.022c-99.194 0-188.557-57.922-229.191-148.029 40.635-90.098 130-148.014 229.191-148.014 99.193 0 188.557 57.916 229.191 148.012C444.557 346.098 355.194 404.022 256 404.022z"/><path d="M256 157.825c-54.134 0-98.174 44.041-98.174 98.174 0 54.133 44.041 98.174 98.174 98.174 54.133 0 98.174-44.04 98.174-98.174 0-54.134-44.041-98.174-98.174-98.174zm0 170.716c-39.998 0-72.54-32.542-72.54-72.54s32.542-72.54 72.54-72.54 72.54 32.542 72.54 72.54-32.542 72.54-72.54 72.54z"/><path d="M256 203.878c-28.739 0-52.123 23.382-52.123 52.123 0 7.078 5.737 12.817 12.817 12.817s12.817-5.739 12.817-12.817c0-14.606 11.882-26.489 26.489-26.489 7.08 0 12.817-5.739 12.817-12.817 0-7.08-5.739-12.817-12.817-12.817z"/></svg><svg viewBox="0 0 47.94 47.94" id="rate" xmlns="http://www.w3.org/2000/svg"><path d="M26.285 2.486l5.407 10.956a2.58 2.58 0 001.944 1.412l12.091 1.757c2.118.308 2.963 2.91 1.431 4.403l-8.749 8.528a2.582 2.582 0 00-.742 2.285l2.065 12.042c.362 2.109-1.852 3.717-3.746 2.722l-10.814-5.685a2.585 2.585 0 00-2.403 0l-10.814 5.685c-1.894.996-4.108-.613-3.746-2.722l2.065-12.042a2.582 2.582 0 00-.742-2.285L.783 21.014c-1.532-1.494-.687-4.096 1.431-4.403l12.091-1.757a2.58 2.58 0 001.944-1.412l5.407-10.956c.946-1.919 3.682-1.919 4.629 0z"/></svg><svg viewBox="0 0 6 11" id="tooltip" xmlns="http://www.w3.org/2000/svg"><path d="M3.78 7.852H2.184a4.09 4.09 0 01.14-1.31c.121-.38.28-.691.476-.933.205-.25.41-.478.616-.682.205-.204.401-.427.588-.669.196-.25.327-.51.392-.78.075-.547-.037-.974-.336-1.28-.299-.317-.69-.474-1.176-.474-.364 0-.695.12-.994.362a1.447 1.447 0 00-.532.96H0C.037 2.147.313 1.465.826 1 1.349.535 2.03.303 2.87.303 3.645.284 4.321.475 4.9.874c.588.4.938.924 1.05 1.574.056.353.065.66.028.92a2.336 2.336 0 01-.322.946c-.168.288-.36.543-.574.766-.205.223-.41.46-.616.71a2.934 2.934 0 00-.504.892c-.13.343-.191.733-.182 1.17zm-.154 2.2a.903.903 0 01-.644.237c-.261 0-.485-.079-.672-.237a.782.782 0 01-.266-.613c0-.25.089-.454.266-.612.187-.158.41-.237.672-.237.261 0 .476.079.644.237a.782.782 0 01.266.612.784.784 0 01-.266.613z"/></svg></svg>